<?xml version="1.0" encoding="UTF-8" standalone="no"?>
<!-- Created with Inkscape (http://www.inkscape.org/) -->

<svg
   width="210mm"
   height="297mm"
   viewBox="0 0 210 297"
   version="1.1"
   id="svg5"
   inkscape:version="1.2.2 (b0a8486541, 2022-12-01)"
   sodipodi:docname="logo.svg"
   xmlns:inkscape="http://www.inkscape.org/namespaces/inkscape"
   xmlns:sodipodi="http://sodipodi.sourceforge.net/DTD/sodipodi-0.dtd"
   xmlns="http://www.w3.org/2000/svg"
   xmlns:svg="http://www.w3.org/2000/svg">
  <sodipodi:namedview
     id="namedview7"
     pagecolor="#ffffff"
     bordercolor="#666666"
     borderopacity="1.0"
     inkscape:showpageshadow="2"
     inkscape:pageopacity="0.0"
     inkscape:pagecheckerboard="0"
     inkscape:deskcolor="#d1d1d1"
     inkscape:document-units="mm"
     showgrid="false"
     inkscape:zoom="0.25"
     inkscape:cx="20"
     inkscape:cy="258"
     inkscape:window-width="2488"
     inkscape:window-height="1376"
     inkscape:window-x="0"
     inkscape:window-y="27"
     inkscape:window-maximized="1"
     inkscape:current-layer="layer1" />
  <defs
     id="defs2" />
  <g
     inkscape:label="Vrstva 1"
     inkscape:groupmode="layer"
     id="layer1">
    <path
       id="rect234"
       style="stroke-width:0.265"
       d="M 0,0 V 296.99996 H 210.0001 V 80.039041 L 129.96107,0 Z"
       sodipodi:nodetypes="cccccc" />
    <path
       id="rect234-3"
       style="fill:#ffffff;stroke-width:0.254222"
       d="M 5,5 V 292 H 205 V 82.05906 L 128.11723,5 Z"
       sodipodi:nodetypes="cccccc" />
    <path
       id="rect4045"
       style="stroke-width:0.581017"
       d="M 123.06954,-4e-7 V 87.103205 l 86.93061,0.0021 V 82.105577 H 128.09973 V -4e-7 Z"
       sodipodi:nodetypes="ccccccc" />
    <g
       aria-label="R"
       id="text5632"
       style="font-weight:bold;font-size:67.7333px;line-height:1.25;font-family:'Abyssinica SIL';-inkscape-font-specification:'Abyssinica SIL Bold';stroke-width:0.264583"
       transform="matrix(0.99999825,0,0,1,5.2124126,1.11127)">
      <path
         d="m 61.558695,70.529332 q -0.429948,0.03307 -1.686718,0.46302 -1.25677,0.429948 -2.778124,0.429948 -3.472654,0 -5.523174,-1.157551 -2.017447,-1.157552 -3.141925,-3.042707 -1.091406,-1.918228 -1.752864,-4.200258 -0.628385,-2.282031 -1.289843,-4.530988 -0.661458,-2.28203 -1.81901,-4.167185 -1.157551,-1.918228 -3.241144,-3.07578 -2.083593,-1.157551 -5.655466,-1.157551 -1.058333,0 -2.017447,0.06614 -0.926041,0.06615 -1.02526,0.06615 v 15.445045 q 0,0.496093 0.330729,0.959114 0.363802,0.46302 1.091406,0.529166 l 3.571873,0.264583 v 2.910415 H 19.787622 v -2.910415 l 3.505728,-0.264583 q 0.727603,-0.06615 1.091405,-0.529166 0.396875,-0.463021 0.396875,-0.959114 V 29.552009 q 0,-0.496094 -0.396875,-0.959114 -0.363802,-0.496094 -1.091405,-0.529167 L 19.787622,27.799145 V 24.88873 h 17.660929 q 7.705985,0 12.137754,2.678905 4.464842,2.645832 4.464842,9.35963 0,3.538801 -1.5875,5.820831 -1.587499,2.248957 -4.134112,3.5388 -2.513541,1.289843 -5.390883,1.951301 3.141926,0.760677 4.894789,2.182812 1.785937,1.389061 2.645832,3.174998 0.859896,1.785937 1.289843,3.704165 0.429948,1.918228 0.859896,3.737238 0.429948,1.819009 1.289843,3.274217 0.892968,1.455207 2.678905,2.315103 1.785936,0.859895 4.960935,0.859895 z M 46.67589,37.224922 q 0,-4.33255 -2.778124,-6.680726 -2.74505,-2.348176 -9.161193,-2.348176 H 31.62772 v 18.553897 q 0.165365,0 1.355989,0.03307 1.223698,0.03307 2.017447,0.03307 5.655466,0 8.6651,-2.083593 3.009634,-2.083593 3.009634,-7.507548 z"
         id="path6410" />
    </g>
    <rect
       style="fill:#000000;stroke-width:0.264999"
       id="rect344"
       width="46"
       height="5"
       x="78"
       y="26" />
    <rect
       style="fill:#000000;stroke-width:0.264999"
       id="rect344-3"
       width="46"
       height="5"
       x="78"
       y="42" />
    <rect
       style="fill:#000000;stroke-width:0.264999"
       id="rect344-3-6"
       width="46"
       height="5"
       x="78"
       y="58" />
    <rect
       style="fill:#000000;stroke-width:0.264999"
       id="rect344-3-6-7"
       width="46"
       height="5"
       x="78"
       y="74" />
    <rect
       style="fill:#000000;stroke-width:0.325536"
       id="rect344-3-6-7-5"
       width="166"
       height="5"
       x="22"
       y="90" />
    <rect
       style="fill:#000000;stroke-width:0.325536"
       id="rect344-3-6-7-5-3"
       width="166"
       height="5"
       x="22"
       y="106" />
    <rect
       style="fill:#000000;stroke-width:0.27678"
       id="rect344-3-6-7-5-3-5"
       width="120"
       height="5"
       x="22"
       y="122" />
    <rect
       style="fill:#000000;stroke-width:0.325536"
       id="rect344-3-6-7-5-3-5-6"
       width="166"
       height="5"
       x="22"
       y="138" />
    <rect
       style="fill:#000000;stroke-width:0.325536"
       id="rect344-3-6-7-5-3-5-6-2"
       width="166"
       height="5"
       x="22"
       y="154" />
    <rect
       style="fill:#000000;stroke-width:0.325536"
       id="rect344-3-6-7-5-3-5-6-2-9"
       width="166"
       height="5"
       x="22"
       y="170" />
    <rect
       style="fill:#000000;stroke-width:0.304249"
       id="rect344-3-6-7-5-3-5-6-2-1"
       width="145"
       height="5"
       x="22"
       y="186" />
    <rect
       style="fill:#000000;stroke-width:0.325536"
       id="rect344-3-6-7-5-3-5-6-2-1-2"
       width="166"
       height="5"
       x="22"
       y="202" />
    <rect
       style="fill:#000000;stroke-width:0.325536"
       id="rect344-3-6-7-5-3-5-6-2-1-2-7"
       width="166"
       height="5"
       x="22"
       y="218" />
    <rect
       style="fill:#000000;stroke-width:0.325536"
       id="rect344-3-6-7-5-3-5-6-2-1-2-0"
       width="166"
       height="5"
       x="22"
       y="234" />
    <rect
       style="fill:#000000;stroke-width:0.195713"
       id="rect344-3-6-7-5-3-5-6-2-1-2-9"
       width="60"
       height="5"
       x="22"
       y="250" />
    <rect
       style="fill:#000000;stroke-width:0.325536"
       id="rect344-3-6-7-5-3-5-6-2-1-2-3"
       width="166"
       height="5"
       x="22"
       y="266" />
  </g>
</svg>
